<svg width="160.000000" height="41.000000" viewBox="0 0 160 41" fill="none" xmlns="http://www.w3.org/2000/svg" xmlns:xlink="http://www.w3.org/1999/xlink">
	<desc>
			Created with Pixso.
	</desc>
	<defs/>
	<g style="mix-blend-mode:normal">
		<path d="M95.4 16.9C95.4 15.48 96.05 14.77 97.35 14.77C97.68 14.77 98.08 14.82 98.52 14.94L98.52 12.56C98.01 12.37 97.38 12.27 96.63 12.27C95.27 12.27 94.22 12.66 93.48 13.45L93.48 13.45Q92.4 14.6 92.4 16.76L92.4 17.94L90.1 17.94L90.1 20.19L92.4 20.19L92.4 30.06L95.4 30.06L95.4 20.19L98.12 20.19L98.12 17.94L95.4 17.94L95.4 16.9ZM118.14 12.39L115.17 12.39L115.17 30.06L118.14 30.06L118.14 12.39ZM53.28 15.51L58.85 15.51L58.85 30.06L61.97 30.06L61.97 15.51L67.56 15.51L67.56 12.97L53.28 12.97L53.28 15.51ZM88.34 30.06L88.34 17.94L85.39 17.94L85.39 19.76C85.02 19.09 84.5 18.57 83.81 18.2C83.12 17.82 82.34 17.62 81.46 17.62C80.42 17.62 79.49 17.9 78.67 18.44C77.86 18.97 77.22 19.72 76.75 20.7C76.3 21.66 76.08 22.76 76.08 24.01Q76.08 25.88 76.75 27.3Q77.26 28.36 78.08 29.06Q78.35 29.29 78.65 29.48C79.46 29.99 80.4 30.25 81.46 30.25Q82.75 30.25 83.77 29.72Q83.79 29.71 83.81 29.7C84.5 29.31 85.02 28.78 85.39 28.11L85.39 30.06L88.34 30.06ZM111.9 30.06L111.9 17.94L108.95 17.94L108.95 19.76C108.58 19.09 108.05 18.57 107.36 18.2C106.68 17.82 105.89 17.62 105.01 17.62C103.97 17.62 103.04 17.9 102.23 18.44C101.41 18.97 100.77 19.72 100.31 20.7C99.86 21.66 99.63 22.76 99.63 24.01C99.63 25.26 99.86 26.35 100.31 27.3C100.76 28.24 101.39 28.97 102.2 29.48C103.02 29.99 103.96 30.25 105.01 30.25Q106.31 30.25 107.32 29.72Q107.34 29.71 107.36 29.7C108.05 29.31 108.58 28.78 108.95 28.11L108.95 30.06L111.9 30.06ZM133.14 29.67L133.14 17.94L130.16 17.94L130.16 19.76C129.79 19.09 129.26 18.57 128.55 18.2C127.86 17.82 127.07 17.62 126.18 17.62Q124.98 17.62 123.97 18.06Q123.65 18.2 123.34 18.39Q123.06 18.57 122.8 18.78Q121.96 19.46 121.42 20.53C120.98 21.44 120.75 22.49 120.75 23.67C120.75 24.86 120.98 25.91 121.42 26.84C121.89 27.75 122.53 28.46 123.34 28.98C124.18 29.47 125.12 29.72 126.18 29.72C127.06 29.72 127.85 29.52 128.55 29.12C129.26 28.7 129.79 28.17 130.16 27.51L130.16 29.91C130.16 32.06 129.08 33.13 126.92 33.13C125.46 33.13 124 32.74 122.53 31.98L122.05 34.25C123.47 35.04 125.12 35.43 126.99 35.43Q130.02 35.43 131.58 33.97C132.62 32.99 133.14 31.56 133.14 29.67ZM147.97 30.06L147.97 17.94L145.02 17.94L145.02 19.76Q144.77 19.31 144.43 18.95Q144.01 18.51 143.43 18.2C142.75 17.82 141.96 17.62 141.08 17.62C140.04 17.62 139.11 17.9 138.3 18.44C137.48 18.97 136.84 19.72 136.38 20.7C135.93 21.66 135.71 22.76 135.71 24.01C135.71 25.26 135.93 26.35 136.38 27.3C136.83 28.24 137.46 28.97 138.27 29.48C139.09 29.99 140.03 30.25 141.08 30.25C141.96 30.25 142.75 30.06 143.43 29.7Q144.04 29.35 144.49 28.86Q144.79 28.52 145.02 28.11L145.02 30.06L147.97 30.06ZM75.32 17.84C74.98 17.71 74.58 17.65 74.12 17.65C73.28 17.65 72.54 17.86 71.88 18.27C71.23 18.69 70.75 19.29 70.44 20.07L70.2 17.94L67.4 17.94C67.52 18.94 67.59 20.09 67.59 21.37L67.59 30.06L70.56 30.06L70.56 23.5Q70.56 22.22 71.18 21.37Q71.26 21.26 71.36 21.15Q71.48 21.01 71.62 20.9Q72.41 20.26 73.71 20.26C74.25 20.26 74.78 20.37 75.29 20.58L75.32 17.84ZM158.96 17.84C158.63 17.71 158.23 17.65 157.76 17.65C156.93 17.65 156.19 17.86 155.53 18.27C154.88 18.69 154.4 19.29 154.09 20.07L153.85 17.94L151.04 17.94C151.17 18.94 151.24 20.09 151.24 21.37L151.24 30.06L154.21 30.06L154.21 23.5Q154.21 22.22 154.83 21.37Q154.91 21.26 155 21.15C155.55 20.56 156.33 20.26 157.36 20.26C157.9 20.26 158.43 20.37 158.94 20.58L158.96 17.84ZM84.58 26.86C84.03 27.55 83.26 27.9 82.27 27.9Q81.23 27.9 80.5 27.41Q80.18 27.2 79.92 26.89Q79.1 25.88 79.1 24.01Q79.1 22.11 79.92 21.06C80.48 20.34 81.26 19.98 82.25 19.98C83.26 19.98 84.03 20.32 84.58 21.01C85.12 21.7 85.39 22.68 85.39 23.96C85.39 25.21 85.12 26.18 84.58 26.86ZM108.13 26.86C107.59 27.55 106.82 27.9 105.83 27.9Q104.78 27.9 104.06 27.41Q103.73 27.2 103.48 26.89Q102.66 25.88 102.66 24.01Q102.66 22.11 103.48 21.06C104.04 20.34 104.81 19.98 105.8 19.98Q106.83 19.98 107.54 20.45Q107.87 20.68 108.13 21.01C108.68 21.7 108.95 22.68 108.95 23.96C108.95 25.21 108.68 26.18 108.13 26.86ZM129.3 26.38C128.74 27.04 127.96 27.37 126.97 27.37C125.98 27.37 125.19 27.04 124.62 26.38C124.06 25.73 123.78 24.82 123.78 23.67Q123.78 21.94 124.62 20.96C125.19 20.3 125.98 19.98 126.97 19.98C127.98 19.98 128.76 20.3 129.32 20.96C129.88 21.62 130.16 22.52 130.16 23.67C130.16 24.82 129.87 25.73 129.3 26.38ZM144.2 26.86C143.66 27.55 142.89 27.9 141.9 27.9C140.89 27.9 140.11 27.56 139.55 26.89C139 26.22 138.73 25.26 138.73 24.01C138.73 22.74 139 21.76 139.55 21.06C140.11 20.34 140.88 19.98 141.87 19.98Q142.9 19.98 143.61 20.45Q143.94 20.68 144.2 21.01C144.75 21.7 145.02 22.68 145.02 23.96C145.02 25.21 144.75 26.18 144.2 26.86Z" fill="#233348" fill-opacity="1.000000" fill-rule="evenodd"/>
	</g>
	<circle cx="20.500000" cy="20.500000" r="20.500000" fill="#458FF6" fill-opacity="1.000000"/>
	<g style="mix-blend-mode:normal">
		<path d="M13.31 15.55L19.34 15.55L19.34 31.31L22.72 31.31L22.72 15.55L28.78 15.55L28.78 12.8L13.31 12.8L13.31 15.55Z" fill="#FFFFFF" fill-opacity="1.000000" fill-rule="evenodd"/>
	</g>
</svg>
